<svg id="Ebene_1" data-name="Ebene 1" xmlns="http://www.w3.org/2000/svg" viewBox="0 0 24 24"><defs><style>.cls-1{fill:#1428F0;}</style></defs><title>linkedin</title><path class="cls-1" d="M7.54,4.06a1.94,1.94,0,0,1-.62,1.5,2.32,2.32,0,0,1-1.66.6h0a2.22,2.22,0,0,1-1.62-.6A2,2,0,0,1,3,4.06a2,2,0,0,1,.63-1.5A2.31,2.31,0,0,1,5.28,2a2.24,2.24,0,0,1,1.63.6A2,2,0,0,1,7.54,4.06ZM7.28,7.82V20H3.23V7.82ZM21.86,13v7h-4V13.48a3.55,3.55,0,0,0-.5-2,1.75,1.75,0,0,0-1.55-.73,2,2,0,0,0-1.29.42,2.61,2.61,0,0,0-.78,1.05,2.94,2.94,0,0,0-.14,1V20h-4q0-4.9,0-7.94t0-3.63V7.82h4V9.58h0A5.42,5.42,0,0,1,14,8.9a5.2,5.2,0,0,1,.69-.64,3.19,3.19,0,0,1,1.07-.53,4.87,4.87,0,0,1,1.41-.19,4.36,4.36,0,0,1,3.38,1.39A5.84,5.84,0,0,1,21.86,13Z"/></svg>
