<?xml version="1.0" encoding="utf-8"?>
<!-- Generator: Adobe Illustrator 16.0.0, SVG Export Plug-In . SVG Version: 6.00 Build 0)  -->
<!DOCTYPE svg PUBLIC "-//W3C//DTD SVG 1.1//EN" "http://www.w3.org/Graphics/SVG/1.1/DTD/svg11.dtd">
<svg version="1.1" id="Ebene_1" xmlns="http://www.w3.org/2000/svg" xmlns:xlink="http://www.w3.org/1999/xlink" x="0px" y="0px"
	 width="141.73px" height="141.73px" viewBox="0 0 141.73 141.73" enable-background="new 0 0 141.73 141.73" xml:space="preserve">
<g>
	<path d="M33.069,103.265c9.173,0.26,15.291-0.463,21.473-1.918c14.337-3.376,20.402-13.351,18.907-22.111
		c-1.482-8.68-14.512-9.895-24.844-9.662c-5.958,0.131-6.182-0.189-0.491-2.04c10.771-3.5,24.589-10.202,24.264-19.702
		c-0.208-6.305-4.053-10.578-15.911-10.578c-9.614,0-17.734,2.137-26.668,7.729c-2.288,1.43-2.813-0.143-2.064-1
		c7.141-8.158,18.305-13.528,34.109-13.528c11.97,0,20.155,6.528,20.857,15.311c0.512,6.382-3.294,13.512-11.387,18.888
		c8.225,2.299,12.127,7.746,13.137,12.98c2.46,12.714-5.77,25.741-28.411,29.483c-10.065,1.658-18.281,0.027-23.445-1.653
		C29.904,104.587,31.078,103.203,33.069,103.265z"/>
	<path d="M122.335,95.277c-9.453,1.271-27.196-5.798-35.716-33.206c-0.254-0.825,0.277-1.785,1.267-2.183
		c12.183-4.915,19.163-8.579,18.202-14.88c-1.051-6.891-9.15-8.188-17.759-4.836c-1.832,0.711-2.061-0.736-0.891-1.817
		c2.183-2.02,6.364-4.47,10.15-4.838c10.852-1.049,16.15,4.641,16.982,10.042c0.964,6.268-2.905,14.276-18.143,17.405
		c1.279,17.213,17.155,30.393,25.759,29.11c6.797-1.01,9.753-6.975,9.753-19.399c0-33.098-27.318-60.029-60.885-60.029
		c-16.331,0-31.595,6.226-43.078,17.433C12.547,43.141,7.31,64.607,5.543,78.172c-0.613,4.747-2.916,5.001-3.406,0.977
		c-0.34-2.801-0.511-5.628-0.511-8.473c0-18.508,7.231-35.801,20.358-48.691C35.045,9.158,52.472,2.099,71.055,2.099
		c38.286,0,69.611,30.76,69.428,68.576C140.406,86.603,132.022,93.979,122.335,95.277z"/>
	<path d="M71.055,139.25c-24.258,0-45.625-11.783-58.682-31.452c-1.52-2.287-1.209-4.286,0.018-5.896
		c5.243-6.899,19.422-27.53,23.161-53.486c0,0,10.605-6.022,9.056,0.41c-9.542,39.739-23.699,56.388-23.699,56.388
		c11.099,16.009,29.663,25.492,50.146,25.492c25.266,0,45.643-14.749,55.93-23.986c3.126-2.808,4.541-1.772,2.931,0.784
		C117.477,127.289,95.665,139.25,71.055,139.25z"/>
</g>
</svg>
