<svg id="Ebene_1" data-name="Ebene 1" xmlns="http://www.w3.org/2000/svg" viewBox="0 0 24 24"><defs><style>.cls-1{fill:#1428F0;}</style></defs><title>xing</title><path class="cls-1" d="M11.33,11.33l-3.16,5.6a.94.94,0,0,1-.8.56H4.44a.41.41,0,0,1-.38-.21.43.43,0,0,1,0-.44l3.11-5.5s0,0,0,0l-2-3.43a.4.4,0,0,1,0-.45.42.42,0,0,1,.39-.18H8.51a.93.93,0,0,1,.81.55Zm9.9-7.88a.41.41,0,0,1,0,.45L14.74,15.37h0l4.13,7.55a.41.41,0,0,1-.38.64H15.55a.9.9,0,0,1-.81-.55l-4.16-7.64L17.1,3.82a.9.9,0,0,1,.79-.55h3A.41.41,0,0,1,21.22,3.45Z"/></svg>
